<svg width="200" height="200" viewBox="0 0 200 200" xmlns="http://www.w3.org/2000/svg">
  <defs>
    <linearGradient id="bg" x1="0" y1="0" x2="1" y2="1">
      <stop offset="0%" stop-color="#0b1220"/>
      <stop offset="100%" stop-color="#1f2937"/>
    </linearGradient>
    <linearGradient id="panel" x1="0" y1="0" x2="0" y2="1">
      <stop offset="0%" stop-color="#111827"/>
      <stop offset="100%" stop-color="#0f172a"/>
    </linearGradient>
    <linearGradient id="barBlue" x1="0" y1="0" x2="0" y2="1">
      <stop offset="0%" stop-color="#67e8f9"/>
      <stop offset="100%" stop-color="#2563eb"/>
    </linearGradient>
    <linearGradient id="barGreen" x1="0" y1="0" x2="0" y2="1">
      <stop offset="0%" stop-color="#4ade80"/>
      <stop offset="100%" stop-color="#16a34a"/>
    </linearGradient>
    <linearGradient id="trend" x1="0" y1="0" x2="1" y2="0">
      <stop offset="0%" stop-color="#f59e0b"/>
      <stop offset="100%" stop-color="#f43f5e"/>
    </linearGradient>
    <filter id="softShadow" x="-20%" y="-20%" width="140%" height="140%">
      <feDropShadow dx="0" dy="4" stdDeviation="4" flood-color="#000000" flood-opacity="0.35"/>
    </filter>
  </defs>

  <rect width="200" height="200" rx="24" fill="url(#bg)"/>
  <rect x="14" y="14" width="172" height="172" rx="18" fill="url(#panel)" stroke="#334155" stroke-width="1.5"/>

  <text x="26" y="42" font-family="Inter, Segoe UI, Arial, sans-serif" font-size="15" font-weight="700" fill="#e2e8f0" letter-spacing="1">SCRAPPY</text>
  <text x="26" y="58" font-family="Inter, Segoe UI, Arial, sans-serif" font-size="9" font-weight="600" fill="#94a3b8" letter-spacing="0.8">NEPSE • IPO</text>

  <rect x="36" y="148" width="128" height="2" rx="1" fill="#334155"/>

  <rect x="44" y="116" width="16" height="32" rx="4" fill="url(#barGreen)" filter="url(#softShadow)"/>
  <rect x="68" y="102" width="16" height="46" rx="4" fill="url(#barBlue)" filter="url(#softShadow)"/>
  <rect x="92" y="88" width="16" height="60" rx="4" fill="url(#barGreen)" filter="url(#softShadow)"/>
  <rect x="116" y="70" width="16" height="78" rx="4" fill="url(#barBlue)" filter="url(#softShadow)"/>

  <path d="M41 130 C57 126, 72 118, 88 107 C103 96, 118 84, 141 68" fill="none" stroke="url(#trend)" stroke-width="5" stroke-linecap="round" stroke-linejoin="round" filter="url(#softShadow)"/>
  <path d="M138 66 L154 63 L146 78 Z" fill="url(#trend)"/>

  <circle cx="154" cy="34" r="6" fill="#22c55e"/>
  <path d="M151 34 L153 36 L157 31" fill="none" stroke="#052e16" stroke-width="1.8" stroke-linecap="round" stroke-linejoin="round"/>
</svg>
